<svg xmlns="http://www.w3.org/2000/svg" width="" height="" viewBox="0 0 383 970" fill="none">
<path d="M377 17H383L380 14L377 17Z" fill="#52B4E0"/>
<path d="M367.499 4.5L378.499 15.5" stroke="#52B4E0" stroke-width="4.24"/>
<path d="M366 6L366 0L369 3L366 6Z" fill="#52B4E0"/>
<path d="M375 3V0H372L375 3Z" fill="#52B4E0"/>
<rect x="366" width="9" height="0.9999" fill="#52B4E0"/>
<path d="M366 2V1H367L366 2Z" fill="#52B4E0"/>
<path d="M375 2V1H374L375 2Z" fill="#52B4E0"/>
<rect width="1" height="40" transform="matrix(-1 0 0 1 383 17)" fill="#52B4E0"/>
<path d="M382 18V17H381L382 18Z" fill="#52B4E0"/>
<path d="M382 57V56L381 57H382Z" fill="#52B4E0"/>
<path d="M383 60V57H380L383 60Z" fill="#52B4E0"/>
<g opacity="0.4">
<path d="M367 18H371L369 16L367 18Z" fill="#52B4E0"/>
<path d="M365.999 15L367.999 17" stroke="#52B4E0" stroke-width="2.83"/>
<path d="M365 16L365 12L367 14L365 16Z" fill="#52B4E0"/>
</g>
<path d="M364 23L364 25L363 24L364 23Z" fill="#52B4E0"/>
<path d="M359.499 19.5L363.499 23.5" stroke="#52B4E0" stroke-width="1.41"/>
<path d="M358 19H360L359 20L358 19Z" fill="#52B4E0"/>
<path d="M6 17H0L3 14L6 17Z" fill="#52B4E0"/>
<path d="M15.5012 4.5L4.50122 15.5" stroke="#52B4E0" stroke-width="4.24"/>
<path d="M16.9999 6L16.9999 0L13.9999 3L16.9999 6Z" fill="#52B4E0"/>
<path d="M8 3V0H11L8 3Z" fill="#52B4E0"/>
<rect width="9" height="0.9999" transform="matrix(-1 0 0 1 17 0)" fill="#52B4E0"/>
<path d="M17 2V1H16L17 2Z" fill="#52B4E0"/>
<path d="M8 2V1H9L8 2Z" fill="#52B4E0"/>
<rect y="17" width="1" height="40" fill="#52B4E0"/>
<path d="M1 18V17H2L1 18Z" fill="#52B4E0"/>
<path d="M1 57V56L2 57H1Z" fill="#52B4E0"/>
<path d="M0 60V57H3L0 60Z" fill="#52B4E0"/>
<g opacity="0.4">
<path d="M16 18H12L14 16L16 18Z" fill="#52B4E0"/>
<path d="M17.001 15L15.001 17" stroke="#52B4E0" stroke-width="2.83"/>
<path d="M17.9999 16L17.9999 12L15.9999 14L17.9999 16Z" fill="#52B4E0"/>
</g>
<path d="M19 23L19 25L20 24L19 23Z" fill="#52B4E0"/>
<path d="M23.5011 19.5L19.5011 23.5" stroke="#52B4E0" stroke-width="1.41"/>
<path d="M24.9999 19H22.9999L23.9999 20L24.9999 19Z" fill="#52B4E0"/>
<path d="M6 953H0L3 956L6 953Z" fill="#52B4E0"/>
<path d="M15.5012 965.5L4.50122 954.5" stroke="#52B4E0" stroke-width="4.24"/>
<path d="M16.9999 964L16.9999 970L13.9999 967L16.9999 964Z" fill="#52B4E0"/>
<path d="M8 967V970H11L8 967Z" fill="#52B4E0"/>
<rect x="17" y="970" width="9" height="0.9999" transform="rotate(-180 17 970)" fill="#52B4E0"/>
<path d="M17 968V969H16L17 968Z" fill="#52B4E0"/>
<path d="M8 968V969H9L8 968Z" fill="#52B4E0"/>
<rect width="1" height="32" transform="matrix(1 0 0 -1 0 953)" fill="#52B4E0"/>
<path d="M1 952V953H2L1 952Z" fill="#52B4E0"/>
<path d="M1 921V922L2 921H1Z" fill="#52B4E0"/>
<path d="M0 918V921H3L0 918Z" fill="#52B4E0"/>
<g opacity="0.4">
<path d="M16 952H12L14 954L16 952Z" fill="#52B4E0"/>
<path d="M17.001 955L15.001 953" stroke="#52B4E0" stroke-width="2.83"/>
<path d="M17.9999 954L17.9999 958L15.9999 956L17.9999 954Z" fill="#52B4E0"/>
</g>
<path d="M19 947L19 945L20 946L19 947Z" fill="#52B4E0"/>
<path d="M23.5011 950.5L19.5011 946.5" stroke="#52B4E0" stroke-width="1.41"/>
<path d="M24.9999 951H22.9999L23.9999 950L24.9999 951Z" fill="#52B4E0"/>
<path d="M377 953H383L380 956L377 953Z" fill="#52B4E0"/>
<path d="M367.499 965.5L378.499 954.5" stroke="#52B4E0" stroke-width="4.24"/>
<path d="M366 964L366 970L369 967L366 964Z" fill="#52B4E0"/>
<path d="M375 967V970H372L375 967Z" fill="#52B4E0"/>
<rect width="9" height="0.9999" transform="matrix(1 0 0 -1 366 970)" fill="#52B4E0"/>
<path d="M366 968V969H367L366 968Z" fill="#52B4E0"/>
<path d="M375 968V969H374L375 968Z" fill="#52B4E0"/>
<rect x="383" y="953" width="1" height="32" transform="rotate(-180 383 953)" fill="#52B4E0"/>
<path d="M382 952V953H381L382 952Z" fill="#52B4E0"/>
<path d="M382 921V922L381 921H382Z" fill="#52B4E0"/>
<path d="M383 918V921H380L383 918Z" fill="#52B4E0"/>
<g opacity="0.4">
<path d="M367 952H371L369 954L367 952Z" fill="#52B4E0"/>
<path d="M365.999 955L367.999 953" stroke="#52B4E0" stroke-width="2.83"/>
<path d="M365 954L365 958L367 956L365 954Z" fill="#52B4E0"/>
</g>
<path d="M364 947L364 945L363 946L364 947Z" fill="#52B4E0"/>
<path d="M359.499 950.5L363.499 946.5" stroke="#52B4E0" stroke-width="1.41"/>
<path d="M358 951H360L359 950L358 951Z" fill="#52B4E0"/>
<g opacity="0.3">
<rect x="21.2614" width="340" height="1.9999" fill="#52B4E0"/>
<path d="M21.2614 4V2H23.2614L21.2614 4Z" fill="#52B4E0"/>
<path d="M361.261 4V2H359.261L361.261 4Z" fill="#52B4E0"/>
</g>
<g opacity="0.3">
<rect x="13.2614" y="8" width="1" height="5" fill="#52B4E0"/>
<path d="M14.2614 9V8H15.2614L14.2614 9Z" fill="#52B4E0"/>
<path d="M13.2614 13V12L12.2614 13H13.2614Z" fill="#52B4E0"/>
<path d="M17.2614 8H13.2614L15.2614 6L17.2614 8Z" fill="#52B4E0"/>
<path d="M20.2624 3L16.2624 7" stroke="#52B4E0" stroke-width="2.83"/>
<path d="M21.2613 4L21.2613 0L19.2613 2L21.2613 4Z" fill="#52B4E0"/>
<path d="M10.2614 17H8.26141L9.26141 16L10.2614 17Z" fill="#52B4E0"/>
<path d="M12.7625 13.5L9.76251 16.5" stroke="#52B4E0" stroke-width="1.41"/>
<path d="M14.2613 13H12.2613L13.2613 14L14.2613 13Z" fill="#52B4E0"/>
</g>
<g opacity="0.3">
<rect x="368.261" y="8" width="1" height="5" fill="#52B4E0"/>
<path d="M368.261 9V8H367.261L368.261 9Z" fill="#52B4E0"/>
<path d="M369.261 13V12L370.261 13H369.261Z" fill="#52B4E0"/>
<path d="M361.261 4L361.261 0L363.261 2L361.261 4Z" fill="#52B4E0"/>
<path d="M362.262 3L366.262 7" stroke="#52B4E0" stroke-width="2.83"/>
<path d="M369.26 8H365.26L367.26 6L369.26 8Z" fill="#52B4E0"/>
<path d="M370.261 13H368.261L369.261 14L370.261 13Z" fill="#52B4E0"/>
<path d="M369.763 13.5L372.763 16.5" stroke="#52B4E0" stroke-width="1.41"/>
<path d="M374.261 17H372.261L373.261 16L374.261 17Z" fill="#52B4E0"/>
</g>
<path d="M24.2614 5V4L23.2614 5H24.2614Z" fill="#52B4E0"/>
<rect x="24.2614" y="4" width="334" height="1" fill="#52B4E0"/>
<path d="M358.261 5V4L359.261 5H358.261Z" fill="#52B4E0"/>
<g opacity="0.3">
<rect width="340" height="1.9999" transform="matrix(1 0 0 -1 21.2615 970)" fill="#52B4E0"/>
<path d="M21.2615 966V968H23.2615L21.2615 966Z" fill="#52B4E0"/>
<path d="M361.261 966V968H359.261L361.261 966Z" fill="#52B4E0"/>
</g>
<g opacity="0.3">
<rect width="1" height="5" transform="matrix(1 0 0 -1 13.2615 962)" fill="#52B4E0"/>
<path d="M14.2615 961V962H15.2615L14.2615 961Z" fill="#52B4E0"/>
<path d="M13.2615 957V958L12.2615 957H13.2615Z" fill="#52B4E0"/>
<path d="M17.2615 962H13.2615L15.2615 964L17.2615 962Z" fill="#52B4E0"/>
<path d="M20.2625 967L16.2625 963" stroke="#52B4E0" stroke-width="2.83"/>
<path d="M21.2614 966L21.2614 970L19.2614 968L21.2614 966Z" fill="#52B4E0"/>
<path d="M10.2615 953H8.26147L9.26147 954L10.2615 953Z" fill="#52B4E0"/>
<path d="M12.7626 956.5L9.76257 953.5" stroke="#52B4E0" stroke-width="1.41"/>
<path d="M14.2614 957H12.2614L13.2614 956L14.2614 957Z" fill="#52B4E0"/>
</g>
<g opacity="0.3">
<rect width="1" height="5" transform="matrix(1 0 0 -1 368.261 962)" fill="#52B4E0"/>
<path d="M368.261 961V962H367.261L368.261 961Z" fill="#52B4E0"/>
<path d="M369.261 957V958L370.261 957H369.261Z" fill="#52B4E0"/>
<path d="M361.261 966L361.261 970L363.261 968L361.261 966Z" fill="#52B4E0"/>
<path d="M362.262 967L366.262 963" stroke="#52B4E0" stroke-width="2.83"/>
<path d="M369.26 962H365.26L367.26 964L369.26 962Z" fill="#52B4E0"/>
<path d="M370.261 957H368.261L369.261 956L370.261 957Z" fill="#52B4E0"/>
<path d="M369.763 956.5L372.763 953.5" stroke="#52B4E0" stroke-width="1.41"/>
<path d="M374.261 953H372.261L373.261 954L374.261 953Z" fill="#52B4E0"/>
</g>
<path d="M24.2615 965V966L23.2615 965H24.2615Z" fill="#52B4E0"/>
<rect width="334" height="1" transform="matrix(1 0 0 -1 24.2615 966)" fill="#52B4E0"/>
<path d="M358.261 965V966L359.261 965H358.261Z" fill="#52B4E0"/>
<g opacity="0.3">
<rect y="910.455" width="851" height="1.9999" transform="rotate(-90 0 910.455)" fill="#52B4E0"/>
<path d="M4 910.455L2 910.455L2 908.455L4 910.455Z" fill="#52B4E0"/>
<path d="M4 59.4548L2 59.4548L2 61.4548L4 59.4548Z" fill="#52B4E0"/>
</g>
<g opacity="0.3">
<rect x="8" y="918.455" width="1" height="5" transform="rotate(-90 8 918.455)" fill="#52B4E0"/>
<path d="M9 917.455L8 917.455L8 916.455L9 917.455Z" fill="#52B4E0"/>
<path d="M13 918.455L12 918.455L13 919.455L13 918.455Z" fill="#52B4E0"/>
<path d="M8 914.455L8 918.455L6 916.455L8 914.455Z" fill="#52B4E0"/>
<path d="M3 911.454L7 915.454" stroke="#52B4E0" stroke-width="2.83"/>
<path d="M4 910.455L0 910.455L2 912.455L4 910.455Z" fill="#52B4E0"/>
<path d="M17 921.455L17 923.455L16 922.455L17 921.455Z" fill="#52B4E0"/>
<path d="M13.5 918.954L16.5 921.954" stroke="#52B4E0" stroke-width="1.41"/>
<path d="M13 917.455L13 919.455L14 918.455L13 917.455Z" fill="#52B4E0"/>
</g>
<g opacity="0.3">
<rect x="8" y="52.4548" width="1" height="5" transform="rotate(-90 8 52.4548)" fill="#52B4E0"/>
<path d="M9 52.4548L8 52.4548L8 53.4548L9 52.4548Z" fill="#52B4E0"/>
<path d="M13 51.4548L12 51.4548L13 50.4548L13 51.4548Z" fill="#52B4E0"/>
<path d="M4 59.4548L0 59.4548L2 57.4548L4 59.4548Z" fill="#52B4E0"/>
<path d="M3 58.4547L7 54.4547" stroke="#52B4E0" stroke-width="2.83"/>
<path d="M8 51.4558L8 55.4558L6 53.4558L8 51.4558Z" fill="#52B4E0"/>
<path d="M13 50.4548L13 52.4548L14 51.4548L13 50.4548Z" fill="#52B4E0"/>
<path d="M13.5 50.9538L16.5 47.9537" stroke="#52B4E0" stroke-width="1.41"/>
<path d="M17 46.4549L17 48.4549L16 47.4549L17 46.4549Z" fill="#52B4E0"/>
</g>
<path d="M5 907.455L4 907.455L5 908.455L5 907.455Z" fill="#52B4E0"/>
<rect x="4" y="907.455" width="845" height="1" transform="rotate(-90 4 907.455)" fill="#52B4E0"/>
<path d="M5 62.4548L4 62.4548L5 61.4548L5 62.4548Z" fill="#52B4E0"/>
<g opacity="0.3">
<rect x="383" y="59.5451" width="851" height="1.9999" transform="rotate(90 383 59.5451)" fill="#52B4E0"/>
<path d="M379 59.5451L381 59.5451L381 61.5451L379 59.5451Z" fill="#52B4E0"/>
<path d="M379 910.545L381 910.545L381 908.545L379 910.545Z" fill="#52B4E0"/>
</g>
<g opacity="0.3">
<rect x="375" y="51.5451" width="1" height="5" transform="rotate(90 375 51.5451)" fill="#52B4E0"/>
<path d="M374 52.5451L375 52.5451L375 53.5451L374 52.5451Z" fill="#52B4E0"/>
<path d="M370 51.5451L371 51.5451L370 50.5451L370 51.5451Z" fill="#52B4E0"/>
<path d="M375 55.5451L375 51.5451L377 53.5451L375 55.5451Z" fill="#52B4E0"/>
<path d="M380 58.5461L376 54.5461" stroke="#52B4E0" stroke-width="2.83"/>
<path d="M379 59.545L383 59.545L381 57.545L379 59.545Z" fill="#52B4E0"/>
<path d="M366 48.5451L366 46.5451L367 47.5451L366 48.5451Z" fill="#52B4E0"/>
<path d="M369.5 51.0462L366.5 48.0461" stroke="#52B4E0" stroke-width="1.41"/>
<path d="M370 52.545L370 50.545L369 51.545L370 52.545Z" fill="#52B4E0"/>
</g>
<g opacity="0.3">
<rect x="375" y="917.545" width="1" height="5" transform="rotate(90 375 917.545)" fill="#52B4E0"/>
<path d="M374 917.545L375 917.545L375 916.545L374 917.545Z" fill="#52B4E0"/>
<path d="M370 918.545L371 918.545L370 919.545L370 918.545Z" fill="#52B4E0"/>
<path d="M379 910.545L383 910.545L381 912.545L379 910.545Z" fill="#52B4E0"/>
<path d="M380 911.545L376 915.545" stroke="#52B4E0" stroke-width="2.83"/>
<path d="M375 918.544L375 914.544L377 916.544L375 918.544Z" fill="#52B4E0"/>
<path d="M370 919.545L370 917.545L369 918.545L370 919.545Z" fill="#52B4E0"/>
<path d="M369.5 919.046L366.5 922.046" stroke="#52B4E0" stroke-width="1.41"/>
<path d="M366 923.545L366 921.545L367 922.545L366 923.545Z" fill="#52B4E0"/>
</g>
<path d="M378 62.5451L379 62.5451L378 61.5451L378 62.5451Z" fill="#52B4E0"/>
<rect x="379" y="62.5451" width="845" height="1" transform="rotate(90 379 62.5451)" fill="#52B4E0"/>
<path d="M378 907.545L379 907.545L378 908.545L378 907.545Z" fill="#52B4E0"/>
</svg>